<svg xmlns="http://www.w3.org/2000/svg" id="Capa_1" data-name="Capa 1" viewBox="0 0 174.38 42.84"><defs><style>.cls-1{fill:#306a61}.cls-2{fill:#231f20}.cls-3{fill:none;stroke-miterlimit:10;stroke:#fbb040;stroke-width:2.22px}</style></defs><title>LOGO FINAL MM</title><path d="m50.65 11.96 2.36-.47 4 5 3.21-5.24 2.11-.15.92 14.32-2.55.2-.57-9.35-2.86 4.32-3.87-4.55.64 9.86-2.55.06ZM71.56 25.88l-.72-5.12-2.39-.17-1.23 5.59-2.58-.31 3.33-14.83 4.07.09 2.37 14.74Zm-2.75-7.52 1.81.06-.66-5ZM78.56 26.15l-2.62-.18.73-14.63H77c.37 0 .68-.05.9-.05h1.14a6.3 6.3 0 0 1 1.37.07c.37 0 .81.11 1.32.2a4.8 4.8 0 0 1 2.37 1.12 3.81 3.81 0 0 1 1.06 4 4 4 0 0 1-4 3.19 6 6 0 0 0 .77 1.05 11 11 0 0 0 .9 1 8.6 8.6 0 0 0 2.64 1.78l-1.19 2.51a10.3 10.3 0 0 1-2.84-2.11 17.8 17.8 0 0 1-2.61-3.37Zm.29-8.74c2.35.46 3.82-.46 3.93-1.93s-1.12-1.94-3.69-1.81ZM89.97 19.96l-4.18-8.84 2.64-.09 2.77 5.9 2.55-5.9 2.69.11-3.88 8.82.31 5.9h-2.56ZM102.62 25.88l-.73-5.12-2.33-.17-1.23 5.59-2.57-.31 3.32-14.83 4.07.09 2.38 14.74Zm-2.75-7.52 1.8.06-.66-5ZM106.82 11.96l2.35-.47 4 5 3.21-5.24 2.12-.15.92 14.32-2.55.2-.57-9.35-2.86 4.32-3.88-4.54.64 9.86-2.56.06ZM127.83 11.96l2.35-.47 4 5 3.21-5.24 2.12-.15.92 14.32-2.55.2-.57-9.35-2.86 4.32-3.89-4.54.64 9.86-2.56.06ZM148.73 25.88l-.73-5.12-2.37-.17-1.24 5.59-2.57-.31 3.32-14.83 4.07.09 2.35 14.73Zm-2.75-7.52 1.8.06-.66-5ZM171.78 22.1h-3v3.89l-2.53.18-.17-15h2.59v8.41l3.08-.05-.08-8.45h2.55l.13 14.66-2.6.17Z" class="cls-1"/><path d="M77.09 37.99v-6.66a3.12 3.12 0 0 1 3 .37 2 2 0 0 1 .77 1.61 2.08 2.08 0 0 1-.65 1.63 2.4 2.4 0 0 1-1.88.6v2.43Zm1.13-5.69v2.09a1.32 1.32 0 0 0 1.32-.58 1 1 0 0 0 0-1 1.09 1.09 0 0 0-1.05-.55ZM81.3 37.8l.12-6.39 1.14.12-.17 6.31ZM85.69 37.96v-.54a1.37 1.37 0 0 1-1.67.3 2 2 0 0 1-.9-1.75 1.68 1.68 0 0 1 .68-1.46 2 2 0 0 1 1.79-.17v-.3l1.11.09v3.81Zm-.08-2.6c-.87-.38-1.28.14-1.3.64s.43 1.09 1.3.62ZM89.37 34.96l-.2 3.06h-1.14l.19-3.08h-.72l.06-.9h.71l.13-2 1.12.11-.11 1.89h1v.93ZM93.46 37.96v-.54a1.37 1.37 0 0 1-1.67.3 2 2 0 0 1-.9-1.75 1.68 1.68 0 0 1 .68-1.46 2 2 0 0 1 1.79-.17v-.3l1.11.09v3.81Zm-.08-2.6c-.87-.38-1.28.14-1.31.64s.44 1.09 1.31.62ZM95.2 35.12l.09-1h.85v-1.6c.1-1.67 1.68-1.58 2.72-1.27l-.21 1a1.36 1.36 0 0 0-1.09-.06.62.62 0 0 0-.25.5 12 12 0 0 0 0 1.4h1.1l-.06 1h-1v2.78h-1.16v-2.74ZM99.35 34.93a2.3 2.3 0 0 1 1.49-.7 1.86 1.86 0 0 1 1.38.4 1.69 1.69 0 0 1 .58 1.41 1.78 1.78 0 0 1-.56 1.41 2.2 2.2 0 0 1-1.35.6 2 2 0 0 1-1.35-.34 1.61 1.61 0 0 1-.68-1.19 1.81 1.81 0 0 1 .49-1.59m.69.89a.71.71 0 0 0 0 .79.82.82 0 0 0 .72.31.79.79 0 1 0 .06-1.58.84.84 0 0 0-.78.48M103.66 38.02l-.31-3.79 1.11-.14v.44a1.39 1.39 0 0 1 1.84-.29l-.57 1.12c-.23-.45-1.23-.09-1.15.31l.23 2.25ZM106.88 34.23l1-.21 1 1.19.93-1.11h1.16l.22 3.81-1.16.09-.12-2.4-1 1.18-.91-1.1.08 2.2h-1.14ZM114.5 37.96v-.54a1.39 1.39 0 0 1-1.68.3 2 2 0 0 1-.9-1.75 1.68 1.68 0 0 1 .68-1.46 2 2 0 0 1 1.8-.17v-.3l1.11.09v3.81Zm-.08-2.6c-.87-.38-1.29.14-1.31.64s.44 1.09 1.31.62ZM119.64 38.02l-.3-6.77 3.52-.19.06 1.17-2.37.15.09 1.34h1l.05 1.17-1 .06.09 1.88 2.43-.18.06 1.18ZM126.42 37.96v-.54a1.39 1.39 0 0 1-1.68.3 2 2 0 0 1-.9-1.75 1.68 1.68 0 0 1 .68-1.46 2 2 0 0 1 1.8-.17v-2.66h1.1v6.27Zm-.08-2.6c-.87-.38-1.29.14-1.31.64s.44 1.09 1.31.62ZM128.3 36.87a5.5 5.5 0 0 1-.15-1.06 7.7 7.7 0 0 1 .1-1.7l1.19.06a9 9 0 0 0-.12 1.09 5 5 0 0 0 .08 1.11c.07.34.18.53.34.57a.83.83 0 0 0 .65-.13.74.74 0 0 0 .35-.63v-2h1.12l-.09 3.81h-1.14v-.49a1.9 1.9 0 0 1-1.14.45 1.38 1.38 0 0 1-1.19-1.08M133.56 34.27a3.15 3.15 0 0 1 2.27 0l-.31 1.07c-1.19-.39-1.8-.21-1.83.56s.71 1.13 2 1.06l-.2 1c-1.31.13-3-.45-2.9-2.16a1.76 1.76 0 0 1 .97-1.53M138.71 37.96v-.54a1.39 1.39 0 0 1-1.68.3 2 2 0 0 1-.9-1.75 1.68 1.68 0 0 1 .68-1.46 2 2 0 0 1 1.8-.17v-.3l1.11.09v3.81Zm-.08-2.6c-.87-.38-1.29.14-1.31.64s.44 1.09 1.31.62ZM142.39 34.96l-.2 3.06h-1.14l.18-3.08h-.72l.07-.9h.71l.13-2 1.12.11-.11 1.89h1v.93ZM144.15 32.59a.71.71 0 0 1 1 0 .62.62 0 0 1 0 .92.71.71 0 0 1-1 0 .62.62 0 0 1 0-.92m-.15 1.7h1.19l-.09 3.66-1.06-.08ZM147.07 37.89l-1.08-3.71h1.23l.58 2.38.89-2.34 1.26.16-1.65 3.68ZM152.96 37.96v-.54a1.39 1.39 0 0 1-1.68.3 2 2 0 0 1-.9-1.75 1.68 1.68 0 0 1 .68-1.46 2 2 0 0 1 1.8-.17v-.3l1.11.09v3.81Zm-.08-2.6c-.87-.38-1.29.14-1.31.64s.44 1.09 1.31.62Z" class="cls-2"/><path d="M158.2 10.58v15.51M152.18 17.77h12.05" class="cls-3"/><path d="M77.31 43.24a18.54 18.54 0 0 1-15.15-7.92c-1.34-1.85-2.66-3.71-3.86-5.65C54 22.65 54.58 16 60 9.84a20.64 20.64 0 0 1 9-6.11 12.7 12.7 0 0 0 2.46-1.32A12.57 12.57 0 0 1 80.64.63c4.93.88 9 3 11.82 7.18s5.37 8.28 6.69 13.2c1.7 6.36-1 16.29-9.66 19.71a34.5 34.5 0 0 1-12.18 2.52" style="fill:#fbb040" transform="translate(-55.44 -.41)"/><path d="M60.39 29.12s4-13 6.59-6.66 4.16 2.45 4.16 2.45 2.74-8.81 5.42 0c1.28 4.2 2.08 6.43 2.58 6.41s.79-2.66 1-5.24c.63-8.58.07-13.81.89-14 .19 0 .65.12 1.35 2 1.42 3.91 3 13.35 4.54 11.31.14-.26 2.43-11.74 2.46-12.93.11-.29.35-3.06 1.64-.42 1.06 3 1 6.84 2.19 9.34 0 0 2 4.69 3.48.09" style="fill:none;stroke-miterlimit:10;stroke:#fff;stroke-linecap:round;stroke-width:1.18px" transform="translate(-55.44 -.41)"/></svg>